# xmcd
#
# Track frame offsets:
# 150
# 17047
# 35477
# 52172
# 78752
# 94787
# 109155
# 131557
# 151590
# 173857
# 192057
#
# Disc length: 2785 seconds
#
#
# Revision: 0
# Processed by: cddbd v1.5.2PL0 Copyright (c) Steve Scherf et al.
# Submitted via: Nero 7, 11, 10, 0 
#
DISCID=810adf0b
DTITLE=Richie Milton and The Lowdown - Straight Ahead - No Stoppin'
DYEAR=1998
DGENRE=Blues
TTITLE0=Dressed To Kill
TTITLE1=Straight Ahead - No Stoppin'
TTITLE2=Bluest Man Alive
TTITLE3=Wasn't That Love?
TTITLE4=Long Come Your Man
TTITLE5=Prisoner Of Love
TTITLE6=Love City
TTITLE7=Forever In My Mind
TTITLE8=A Boogie Woogie Country Girl - Caldonia
TTITLE9=Messed Up In Your Love
TTITLE10=Mo' Killin' The Lowdown
EXTD=
EXTT0=Dressed To Kill
EXTT1=Straight Ahead - No Stoppin'
EXTT2=Bluest Man Alive
EXTT3=Wasn't That Love?
EXTT4=Long Come Your Man
EXTT5=Prisoner Of Love
EXTT6=Love City
EXTT7=Forever In My Mind
EXTT8=A Boogie Woogie Country Girl - Caldonia
EXTT9=Messed Up In Your Love
EXTT10=Mo' Killin' The Lowdown
PLAYORDER=
